<svg xmlns="http://www.w3.org/2000/svg" width="160" height="160" viewBox="0 0 160 160" role="img" aria-labelledby="title desc">
  <title id="title">ShortLink Pro</title>
  <desc id="desc">A modern rounded square logo with a connected short-link mark.</desc>
  <defs>
    <linearGradient id="tile" x1="22" y1="14" x2="138" y2="148" gradientUnits="userSpaceOnUse">
      <stop offset="0" stop-color="#18D7D3"/>
      <stop offset=".48" stop-color="#1387F2"/>
      <stop offset="1" stop-color="#4F46E5"/>
    </linearGradient>
    <linearGradient id="shine" x1="35" y1="18" x2="116" y2="131" gradientUnits="userSpaceOnUse">
      <stop offset="0" stop-color="#FFFFFF" stop-opacity=".42"/>
      <stop offset=".58" stop-color="#FFFFFF" stop-opacity=".08"/>
      <stop offset="1" stop-color="#FFFFFF" stop-opacity="0"/>
    </linearGradient>
    <linearGradient id="mark" x1="41" y1="111" x2="121" y2="44" gradientUnits="userSpaceOnUse">
      <stop offset="0" stop-color="#F8FEFF"/>
      <stop offset=".54" stop-color="#D7FAFF"/>
      <stop offset="1" stop-color="#FFFFFF"/>
    </linearGradient>
    <filter id="softShadow" x="-25%" y="-25%" width="150%" height="150%" color-interpolation-filters="sRGB">
      <feDropShadow dx="0" dy="12" stdDeviation="12" flood-color="#0B1220" flood-opacity=".18"/>
    </filter>
  </defs>

  <rect x="8" y="8" width="144" height="144" rx="34" fill="#111827" filter="url(#softShadow)"/>
  <rect x="10" y="10" width="140" height="140" rx="32" fill="url(#tile)"/>
  <path d="M32 15h58c34 0 56 22 56 56v57c-26-1-45-11-58-30L32 15Z" fill="url(#shine)"/>
  <path d="M16 112c24 20 52 28 83 24 20-3 36-10 48-20v10c0 13-11 24-24 24H36c-15 0-26-11-26-26v-5l6-7Z" fill="#07111F" opacity=".12"/>

  <g fill="none" stroke-linecap="round" stroke-linejoin="round">
    <path d="M61.4 99.7 50.8 110.3c-12.1 12.1-31.7 12.1-43.8 0s-12.1-31.7 0-43.8l14.3-14.3c12.1-12.1 31.7-12.1 43.8 0" transform="translate(29 -11)" stroke="#0B3C5F" stroke-width="19" opacity=".28"/>
    <path d="M98.6 60.3 109.2 49.7c12.1-12.1 31.7-12.1 43.8 0s12.1 31.7 0 43.8l-14.3 14.3c-12.1 12.1-31.7 12.1-43.8 0" transform="translate(-29 11)" stroke="#0B3C5F" stroke-width="19" opacity=".28"/>
    <path d="M61.4 99.7 50.8 110.3c-12.1 12.1-31.7 12.1-43.8 0s-12.1-31.7 0-43.8l14.3-14.3c12.1-12.1 31.7-12.1 43.8 0" transform="translate(29 -11)" stroke="url(#mark)" stroke-width="13"/>
    <path d="M98.6 60.3 109.2 49.7c12.1-12.1 31.7-12.1 43.8 0s12.1 31.7 0 43.8l-14.3 14.3c-12.1 12.1-31.7 12.1-43.8 0" transform="translate(-29 11)" stroke="url(#mark)" stroke-width="13"/>
    <path d="M60 101 100 61" stroke="#A7F3F0" stroke-width="10"/>
    <path d="M60 101 100 61" stroke="#8B5CF6" stroke-width="4" opacity=".9"/>
  </g>

  <circle cx="48" cy="44" r="6" fill="#EAFBFF" opacity=".88"/>
  <circle cx="119" cy="116" r="5" fill="#7DD3FC" opacity=".78"/>
</svg>
